<svg width="377" height="40" viewBox="0 0 377 40" fill="none" xmlns="http://www.w3.org/2000/svg">
<path d="M11.16 25.992H7.56V39H0.503998V5.78399H10.872C15.32 5.78399 18.664 6.61599 20.904 8.27999C23.144 9.91199 24.264 12.392 24.264 15.72C24.264 17.896 23.72 19.688 22.632 21.096C21.576 22.504 19.928 23.704 17.688 24.696L26.28 39H18.264L11.16 25.992ZM7.56 21H11.256C13.144 21 14.568 20.584 15.528 19.752C16.488 18.888 16.968 17.544 16.968 15.72C16.968 14.024 16.456 12.792 15.432 12.024C14.44 11.224 12.872 10.824 10.728 10.824H7.56V21Z" fill="#100F0F"/>
<path d="M48.8156 31.944C48.8156 32.936 48.9596 33.672 49.2476 34.152C49.5356 34.6 50.0156 34.936 50.6876 35.16L49.2476 39.672C47.7436 39.544 46.5116 39.192 45.5516 38.616C44.6236 38.04 43.9036 37.144 43.3916 35.928C41.7276 38.488 39.1836 39.768 35.7596 39.768C33.2316 39.768 31.2156 39.048 29.7116 37.608C28.2396 36.136 27.5036 34.232 27.5036 31.896C27.5036 29.112 28.5116 26.984 30.5276 25.512C32.5436 24.04 35.4396 23.304 39.2156 23.304H42.1436V22.056C42.1436 20.488 41.7916 19.4 41.0876 18.792C40.3836 18.184 39.2156 17.88 37.5836 17.88C35.7916 17.88 33.5516 18.328 30.8636 19.224L29.3276 14.664C32.4956 13.416 35.6316 12.792 38.7356 12.792C42.1916 12.792 44.7356 13.544 46.3676 15.048C47.9996 16.52 48.8156 18.728 48.8156 21.672V31.944ZM37.6316 34.872C39.5516 34.872 41.0556 33.928 42.1436 32.04V27.192H39.8876C36.2076 27.192 34.3676 28.568 34.3676 31.32C34.3676 32.44 34.6396 33.32 35.1836 33.96C35.7596 34.568 36.5756 34.872 37.6316 34.872Z" fill="#100F0F"/>
<path d="M66.5216 7.75199C65.3696 7.75199 64.5376 8.02399 64.0256 8.568C63.5456 9.11199 63.3056 9.99199 63.3056 11.208V13.56H69.3536L68.5856 18.36H63.3056V39H56.4896V18.36H52.4576V13.56H56.4896V11.016C56.4896 8.55199 57.2896 6.55199 58.8896 5.016C60.5216 3.44799 62.8256 2.66399 65.8016 2.66399C68.1696 2.66399 70.4096 3.17599 72.5216 4.19999L70.6496 8.71199C69.2736 8.07199 67.8976 7.75199 66.5216 7.75199Z" fill="#100F0F"/>
<path d="M90.7687 31.944C90.7687 32.936 90.9128 33.672 91.2008 34.152C91.4888 34.6 91.9687 34.936 92.6407 35.16L91.2008 39.672C89.6968 39.544 88.4647 39.192 87.5047 38.616C86.5767 38.04 85.8567 37.144 85.3447 35.928C83.6807 38.488 81.1367 39.768 77.7127 39.768C75.1847 39.768 73.1687 39.048 71.6647 37.608C70.1927 36.136 69.4567 34.232 69.4567 31.896C69.4567 29.112 70.4648 26.984 72.4808 25.512C74.4968 24.04 77.3927 23.304 81.1687 23.304H84.0967V22.056C84.0967 20.488 83.7447 19.4 83.0407 18.792C82.3367 18.184 81.1688 17.88 79.5368 17.88C77.7448 17.88 75.5047 18.328 72.8167 19.224L71.2807 14.664C74.4487 13.416 77.5848 12.792 80.6888 12.792C84.1448 12.792 86.6887 13.544 88.3207 15.048C89.9527 16.52 90.7687 18.728 90.7687 21.672V31.944ZM79.5847 34.872C81.5047 34.872 83.0087 33.928 84.0967 32.04V27.192H81.8407C78.1607 27.192 76.3207 28.568 76.3207 31.32C76.3207 32.44 76.5927 33.32 77.1367 33.96C77.7127 34.568 78.5287 34.872 79.5847 34.872Z" fill="#100F0F"/>
<path d="M119.083 25.704C119.083 26.024 119.035 26.904 118.939 28.344H103.051C103.275 30.648 103.899 32.28 104.923 33.24C105.947 34.2 107.339 34.68 109.099 34.68C110.187 34.68 111.211 34.504 112.171 34.152C113.131 33.8 114.171 33.24 115.291 32.472L118.123 36.312C115.275 38.616 112.059 39.768 108.475 39.768C104.475 39.768 101.403 38.568 99.2588 36.168C97.1148 33.768 96.0427 30.52 96.0427 26.424C96.0427 23.832 96.4907 21.512 97.3867 19.464C98.3147 17.384 99.6428 15.752 101.371 14.568C103.131 13.384 105.211 12.792 107.611 12.792C111.227 12.792 114.043 13.928 116.059 16.2C118.075 18.472 119.083 21.64 119.083 25.704ZM112.315 23.784C112.315 19.56 110.795 17.448 107.755 17.448C106.347 17.448 105.243 17.976 104.443 19.032C103.675 20.056 103.211 21.736 103.051 24.072H112.315V23.784Z" fill="#100F0F"/>
<path d="M130.352 39.768C128.272 39.768 126.656 39.176 125.504 37.992C124.352 36.776 123.776 35.064 123.776 32.856V3.43199L130.592 2.66399V32.664C130.592 33.784 131.056 34.344 131.984 34.344C132.496 34.344 132.944 34.248 133.328 34.056L134.72 38.904C133.408 39.48 131.952 39.768 130.352 39.768Z" fill="#100F0F"/>
<path d="M167.074 21.432C169.314 21.848 171.122 22.664 172.498 23.88C173.906 25.064 174.61 26.888 174.61 29.352C174.61 32.84 173.362 35.32 170.866 36.792C168.37 38.264 164.898 39 160.45 39H150.082V5.78399H159.154C163.698 5.78399 167.17 6.45599 169.57 7.79999C171.97 9.14399 173.17 11.304 173.17 14.28C173.17 16.232 172.578 17.816 171.394 19.032C170.242 20.216 168.802 21.016 167.074 21.432ZM157.138 10.872V19.272H160.594C162.322 19.272 163.65 18.92 164.578 18.216C165.506 17.48 165.97 16.376 165.97 14.904C165.97 13.432 165.474 12.392 164.482 11.784C163.49 11.176 161.938 10.872 159.826 10.872H157.138ZM160.498 33.768C162.706 33.768 164.386 33.448 165.538 32.808C166.69 32.136 167.266 30.888 167.266 29.064C167.266 25.736 165.218 24.072 161.122 24.072H157.138V33.768H160.498Z" fill="#100F0F"/>
<path d="M186.285 13.56V39H179.469V13.56H186.285ZM182.829 0.455994C184.045 0.455994 185.037 0.839993 185.805 1.60799C186.605 2.34399 187.005 3.28799 187.005 4.43999C187.005 5.59199 186.605 6.55199 185.805 7.31999C185.037 8.05599 184.045 8.42399 182.829 8.42399C181.613 8.42399 180.621 8.05599 179.853 7.31999C179.085 6.55199 178.701 5.59199 178.701 4.43999C178.701 3.28799 179.085 2.34399 179.853 1.60799C180.621 0.839993 181.613 0.455994 182.829 0.455994Z" fill="#100F0F"/>
<path d="M208.232 37.8C207.304 38.44 206.248 38.92 205.064 39.24C203.912 39.592 202.76 39.768 201.608 39.768C198.984 39.736 197 38.984 195.656 37.512C194.312 36.04 193.64 33.88 193.64 31.032V18.36H189.848V13.56H193.64V7.99199L200.456 7.17599V13.56H206.312L205.64 18.36H200.456V30.888C200.456 32.104 200.664 32.984 201.08 33.528C201.496 34.072 202.136 34.344 203 34.344C203.864 34.344 204.824 34.056 205.88 33.48L208.232 37.8Z" fill="#100F0F"/>
<path d="M231.958 25.704C231.958 26.024 231.91 26.904 231.814 28.344H215.926C216.15 30.648 216.774 32.28 217.798 33.24C218.822 34.2 220.214 34.68 221.974 34.68C223.062 34.68 224.086 34.504 225.046 34.152C226.006 33.8 227.046 33.24 228.166 32.472L230.998 36.312C228.15 38.616 224.934 39.768 221.35 39.768C217.35 39.768 214.278 38.568 212.134 36.168C209.99 33.768 208.918 30.52 208.918 26.424C208.918 23.832 209.366 21.512 210.262 19.464C211.19 17.384 212.518 15.752 214.246 14.568C216.006 13.384 218.086 12.792 220.486 12.792C224.102 12.792 226.918 13.928 228.934 16.2C230.95 18.472 231.958 21.64 231.958 25.704ZM225.19 23.784C225.19 19.56 223.67 17.448 220.63 17.448C219.222 17.448 218.118 17.976 217.318 19.032C216.55 20.056 216.086 21.736 215.926 24.072H225.19V23.784Z" fill="#100F0F"/>
<path d="M251.099 12.792C253.339 12.792 255.083 13.48 256.331 14.856C257.579 16.2 258.203 18.072 258.203 20.472V39H251.387V21.624C251.387 20.248 251.147 19.288 250.667 18.744C250.219 18.168 249.531 17.88 248.603 17.88C247.643 17.88 246.763 18.184 245.963 18.792C245.195 19.368 244.443 20.248 243.707 21.432V39H236.891V13.56H242.795L243.323 16.776C244.379 15.464 245.531 14.472 246.779 13.8C248.059 13.128 249.499 12.792 251.099 12.792Z" fill="#100F0F"/>
<path d="M275.296 12.792C276.992 12.792 278.512 13.048 279.856 13.56C281.232 14.04 282.528 14.808 283.744 15.864L280.768 19.896C279.936 19.256 279.12 18.792 278.32 18.504C277.552 18.216 276.704 18.072 275.776 18.072C272.16 18.072 270.352 20.856 270.352 26.424C270.352 29.24 270.816 31.256 271.744 32.472C272.672 33.688 274 34.296 275.728 34.296C276.624 34.296 277.44 34.168 278.176 33.912C278.912 33.624 279.776 33.16 280.768 32.52L283.744 36.792C281.312 38.776 278.528 39.768 275.392 39.768C272.896 39.768 270.72 39.224 268.864 38.136C267.04 37.048 265.632 35.512 264.64 33.528C263.648 31.512 263.152 29.16 263.152 26.472C263.152 23.784 263.648 21.416 264.64 19.368C265.632 17.288 267.04 15.672 268.864 14.52C270.72 13.368 272.864 12.792 275.296 12.792Z" fill="#100F0F"/>
<path d="M297.376 12.792C301.184 12.792 304.161 13.992 306.305 16.392C308.449 18.76 309.521 22.056 309.521 26.28C309.521 28.968 309.024 31.336 308.033 33.384C307.073 35.4 305.665 36.968 303.809 38.088C301.985 39.208 299.824 39.768 297.328 39.768C293.52 39.768 290.529 38.584 288.353 36.216C286.209 33.816 285.137 30.504 285.137 26.28C285.137 23.592 285.617 21.24 286.577 19.224C287.569 17.176 288.977 15.592 290.801 14.472C292.657 13.352 294.848 12.792 297.376 12.792ZM297.376 17.88C295.648 17.88 294.352 18.568 293.488 19.944C292.656 21.288 292.241 23.4 292.241 26.28C292.241 29.16 292.656 31.288 293.488 32.664C294.352 34.008 295.632 34.68 297.328 34.68C299.024 34.68 300.288 34.008 301.12 32.664C301.984 31.288 302.417 29.16 302.417 26.28C302.417 23.4 302 21.288 301.168 19.944C300.336 18.568 299.072 17.88 297.376 17.88Z" fill="#100F0F"/>
<path d="M335.536 39H329.632L329.296 35.592C328.4 37 327.312 38.056 326.032 38.76C324.752 39.432 323.264 39.768 321.568 39.768C319.264 39.768 317.504 39.08 316.288 37.704C315.072 36.296 314.464 34.344 314.464 31.848V13.56H321.28V30.984C321.28 32.328 321.504 33.288 321.952 33.864C322.4 34.408 323.104 34.68 324.064 34.68C325.888 34.68 327.44 33.576 328.72 31.368V13.56H335.536V39Z" fill="#100F0F"/>
<path d="M355.418 12.84C356.186 12.84 357.034 12.968 357.962 13.224L356.81 19.8C355.914 19.576 355.162 19.464 354.554 19.464C353.05 19.464 351.882 19.992 351.05 21.048C350.218 22.104 349.562 23.704 349.082 25.848V39H342.266V13.56H348.17L348.794 18.504C349.402 16.712 350.282 15.32 351.434 14.328C352.618 13.336 353.946 12.84 355.418 12.84Z" fill="#100F0F"/>
<path d="M376.56 37.8C375.632 38.44 374.576 38.92 373.392 39.24C372.24 39.592 371.088 39.768 369.936 39.768C367.312 39.736 365.328 38.984 363.984 37.512C362.64 36.04 361.968 33.88 361.968 31.032V18.36H358.176V13.56H361.968V7.99199L368.784 7.17599V13.56H374.64L373.968 18.36H368.784V30.888C368.784 32.104 368.992 32.984 369.408 33.528C369.824 34.072 370.464 34.344 371.328 34.344C372.192 34.344 373.152 34.056 374.208 33.48L376.56 37.8Z" fill="#100F0F"/>
</svg>
